<svg id="圖層_1" data-name="圖層 1" xmlns="http://www.w3.org/2000/svg" viewBox="0 0 211.27 127.14"><defs><style>.cls-1{fill:#fff;}</style></defs><path class="cls-1" d="M28.78,5.78H4.33l7.39-7.39a3.22,3.22,0,0,0,0-4.56,3.21,3.21,0,0,0-4.55,0L-8,9,7.17,24.17a3.22,3.22,0,0,0,4.55-4.56L4.33,12.22H28.78a3.22,3.22,0,0,0,0-6.44Z" transform="translate(118 60.14)"/><path d="M-66.71-27.71a1,1,0,0,0,0,1.42l2.3,2.29H-72a1,1,0,0,0-1,1,1,1,0,0,0,1,1h7.59l-2.3,2.29a1,1,0,0,0,0,1.42A1,1,0,0,0-66-18a1,1,0,0,0,.71-.29l4.7-4.71-4.7-4.71A1,1,0,0,0-66.71-27.71Z" transform="translate(118 60.14)"/><path d="M-64.14,12l-4.71,4.71a1,1,0,0,0,0,1.41,1,1,0,0,0,1.41,0l2.3-2.29v7.58a1,1,0,0,0,1,1,1,1,0,0,0,1-1V15.83l2.29,2.29a1,1,0,0,0,.71.29,1,1,0,0,0,.7-.29,1,1,0,0,0,0-1.41Z" transform="translate(118 60.14)"/><path d="M-112,12a5.94,5.94,0,0,0-4.24,1.76A5.94,5.94,0,0,0-118,18V28a5.94,5.94,0,0,0,1.76,4.24A5.94,5.94,0,0,0-112,34h10a5.94,5.94,0,0,0,4.24-1.76A5.94,5.94,0,0,0-96,28V18a5.94,5.94,0,0,0-1.76-4.24A5.94,5.94,0,0,0-102,12Zm0,2h10a4,4,0,0,1,2.83,1.17A4,4,0,0,1-98,18V28a4,4,0,0,1-1.17,2.83A4,4,0,0,1-102,32h-10a4,4,0,0,1-2.83-1.17A4,4,0,0,1-116,28V18a4,4,0,0,1,1.17-2.83A4,4,0,0,1-112,14Zm10,8.22a5.06,5.06,0,0,0-1.19-2.56,5,5,0,0,0-3-1.65,4.89,4.89,0,0,0-1.48,0A5,5,0,0,0-111,20a4.94,4.94,0,0,0-.93,3.71,5,5,0,0,0,2,3.28,5,5,0,0,0,3.72.93,5,5,0,0,0,3.28-2,5,5,0,0,0,.93-3.71Zm-2,.3a3,3,0,0,1-.56,2.22,3,3,0,0,1-2,1.18,3,3,0,0,1-2.22-.55,3,3,0,0,1-1.18-2,3,3,0,0,1,.55-2.23,3,3,0,0,1,2-1.18,2.81,2.81,0,0,1,.87,0,3,3,0,0,1,1.82,1,3,3,0,0,1,.72,1.55Zm2.49-4a1,1,0,0,0,1-1,1,1,0,0,0-1-1,1,1,0,0,0-1,1A1,1,0,0,0-101.5,18.5Z" transform="translate(118 60.14)"/><path d="M-107,53a2,2,0,0,0-.59-1.41A2,2,0,0,0-109,51a2,2,0,0,0-1.41.59A2,2,0,0,0-111,53a2,2,0,0,0,.59,1.41A2,2,0,0,0-109,55a2,2,0,0,0,1.41-.59A2,2,0,0,0-107,53Zm11,0a2,2,0,0,0-.59-1.41A2,2,0,0,0-98,51a2,2,0,0,0-1.41.59A2,2,0,0,0-100,53a2,2,0,0,0,.59,1.41A2,2,0,0,0-98,55a2,2,0,0,0,1.41-.59A2,2,0,0,0-96,53Zm-14.78-14h14.57l-1.37,7.19a1.06,1.06,0,0,1-.33.57,1.07,1.07,0,0,1-.69.24h-9.73a1,1,0,0,1-.63-.2,1,1,0,0,1-.38-.61ZM-117,34h3.18l.85,4.24a1,1,0,0,0,1,.76h1.22l-.4-2H-112a1,1,0,0,0-1,1,.76.76,0,0,0,0,.15s0,.06,0,.09l1.67,8.35a3,3,0,0,0,1.14,1.81,3,3,0,0,0,1.85.6h9.71a3,3,0,0,0,2-.73,3,3,0,0,0,1-1.68l1.6-8.4A1,1,0,0,0-94.81,37L-95,37h-16.18l-.84-4.2a1,1,0,0,0-1-.8h-4a1,1,0,0,0-1,1A1,1,0,0,0-117,34Z" transform="translate(118 60.14)"/><path d="M-49,57h3v3h-3v7h-3V60h-3V57h3V55.74a5.64,5.64,0,0,1,1.12-3.51A3.59,3.59,0,0,1-48.1,51H-46v3h-2.1a.9.9,0,0,0-.9.9Z" transform="translate(118 60.14)"/><path d="M86.46,28.27a3.54,3.54,0,0,0,1.61-2,9.06,9.06,0,0,1-2.35.86A3.49,3.49,0,0,0,83.06,26,3.63,3.63,0,0,0,80.41,27a3.59,3.59,0,0,0-1.07,2.61,2.91,2.91,0,0,0,.11.82,9.89,9.89,0,0,1-7.62-3.84,3.69,3.69,0,0,0-.51,1.85A3.58,3.58,0,0,0,73,31.56a4.19,4.19,0,0,1-1.64-.47,3.71,3.71,0,0,0,2.93,3.68,3.93,3.93,0,0,1-1,.11,1.76,1.76,0,0,1-.66-.08,3.5,3.5,0,0,0,1.29,1.84,3.63,3.63,0,0,0,2.15.74A7.17,7.17,0,0,1,71.47,39a6.4,6.4,0,0,1-.9,0,10.23,10.23,0,0,0,5.68,1.65,10,10,0,0,0,5.67-1.63,10.18,10.18,0,0,0,3.64-4,10.83,10.83,0,0,0,1.17-4.89V29.6a7.75,7.75,0,0,0,1.84-1.92A8.18,8.18,0,0,1,86.46,28.27Z" transform="translate(118 60.14)"/><path d="M82.28-55,77-54.43a.5.5,0,0,0-.42.34.48.48,0,0,0,.14.52L80.65-50l-1.07,5.19a.47.47,0,0,0,.2.5.47.47,0,0,0,.53,0l4.61-2.62,4.6,2.62a.5.5,0,0,0,.55,0,.48.48,0,0,0,.19-.5L89.19-50l3.92-3.57a.5.5,0,0,0,.14-.52.5.5,0,0,0-.42-.34L87.56-55l-2.18-4.83a.52.52,0,0,0-.46-.29.5.5,0,0,0-.45.29C83.59-57.92,82.28-55,82.28-55Z" transform="translate(118 60.14)"/></svg>