<?xml version="1.0" encoding="utf-8"?>
<!-- Generator: Adobe Illustrator 24.2.1, SVG Export Plug-In . SVG Version: 6.00 Build 0)  -->
<svg version="1.1" id="圖層_1" xmlns="http://www.w3.org/2000/svg" xmlns:xlink="http://www.w3.org/1999/xlink" x="0px" y="0px"
	 viewBox="0 0 24 24" style="enable-background:new 0 0 24 24;" xml:space="preserve">
<style type="text/css">
	.st0{fill:#FFFDFD;}
</style>
<path class="st0" d="M7,1C5.3,1,3.8,1.7,2.8,2.8S1,5.3,1,7v10c0,1.7,0.7,3.2,1.8,4.2S5.3,23,7,23h10c1.7,0,3.2-0.7,4.2-1.8
	S23,18.7,23,17V7c0-1.7-0.7-3.2-1.8-4.2S18.7,1,17,1H7z M7,3h10c1.1,0,2.1,0.4,2.8,1.2S21,5.9,21,7v10c0,1.1-0.4,2.1-1.2,2.8
	S18.1,21,17,21H7c-1.1,0-2.1-0.4-2.8-1.2S3,18.1,3,17V7c0-1.1,0.4-2.1,1.2-2.8S5.9,3,7,3z M17,11.2c-0.1-1-0.6-1.9-1.2-2.6
	C15,7.8,14,7.2,12.8,7c-0.5-0.1-1-0.1-1.5,0C9.9,7.2,8.8,8,8,9s-1.1,2.3-0.9,3.7s0.9,2.5,2,3.3c1,0.8,2.3,1.1,3.7,0.9s2.5-0.9,3.3-2
	S17.2,12.6,17,11.2L17,11.2z M15,11.5c0.1,0.8-0.1,1.6-0.6,2.2s-1.1,1.1-2,1.2s-1.6-0.1-2.2-0.6s-1.1-1.1-1.2-2s0.1-1.6,0.6-2.2
	s1.1-1.1,2-1.2c0.3,0,0.6,0,0.9,0c0.7,0.1,1.4,0.5,1.8,1C14.7,10.4,14.9,10.9,15,11.5L15,11.5z M17.5,7.5c0.6,0,1-0.4,1-1
	s-0.4-1-1-1s-1,0.4-1,1S16.9,7.5,17.5,7.5z"/>
</svg>
