<?xml version="1.0" encoding="utf-8"?>
<!-- Generator: Adobe Illustrator 24.2.1, SVG Export Plug-In . SVG Version: 6.00 Build 0)  -->
<svg version="1.1" id="圖層_1" xmlns="http://www.w3.org/2000/svg" xmlns:xlink="http://www.w3.org/1999/xlink" x="0px" y="0px"
	 viewBox="0 0 24 24" style="enable-background:new 0 0 24 24;" xml:space="preserve">
<style type="text/css">
	.st0{fill:#FFFFFF;}
</style>
<path class="st0" d="M20.4,5.9c1-0.6,1.6-1.4,2-2.5c-1,0.5-1.9,0.9-2.9,1.1c-0.9-0.9-1.9-1.4-3.3-1.4c-1.3,0-2.4,0.4-3.2,1.3
	c-0.9,0.9-1.3,1.9-1.3,3.2c0,0.4,0,0.7,0.1,1C8.1,8.5,5,6.9,2.5,3.9C2.1,4.6,1.9,5.4,1.9,6.1c0,1.6,0.7,2.9,2,3.8
	c-0.8-0.1-1.4-0.3-2-0.6c0,1.1,0.3,2.1,1,2.9c0.7,0.8,1.5,1.4,2.6,1.6C5.1,13.9,4.7,14,4.3,14c-0.4,0-0.7,0-0.8-0.1
	c0.3,0.9,0.8,1.7,1.6,2.2C5.8,16.7,6.7,17,7.7,17C6.1,18.3,4.2,19,2.1,19c-0.5,0-0.9,0-1.1,0c2.1,1.3,4.4,2,6.9,2
	c2.6,0,4.9-0.7,6.9-2c2-1.3,3.5-2.9,4.4-4.9c1-1.9,1.4-3.9,1.4-6V7.5C21.7,6.8,22.4,6,23,5.2C22.2,5.5,21.3,5.8,20.4,5.9z"/>
</svg>
