<svg xmlns="http://www.w3.org/2000/svg" viewBox="0 0 78.73 76.44"><defs><style>.cls-1{fill:#fff;}</style></defs><g id="圖層_2" data-name="圖層 2"><g id="Layer_1" data-name="Layer 1"><path class="cls-1" d="M38.22,76.44a38.22,38.22,0,1,1,10.23-75,3,3,0,1,1-1.6,5.78,32.22,32.22,0,1,0,16,51.74l-7.06-2.25A3,3,0,1,1,57.64,51l11.06,3.5A3,3,0,0,1,70.31,59,38.14,38.14,0,0,1,38.22,76.44Z"/><path class="cls-1" d="M75.63,47.09a2.31,2.31,0,0,1-.37,0L37.91,42.35a3,3,0,0,1-2-4.8l23-29.84A3,3,0,0,1,61,6.55a3,3,0,0,1,2.27.72,45.38,45.38,0,0,1,15.4,37,3,3,0,0,1-1.09,2.11A3,3,0,0,1,75.63,47.09Zm-31.77-10L72.72,40.7A39.36,39.36,0,0,0,61.61,14Z"/><path class="cls-1" d="M27.25,37.51a3,3,0,0,1-2.05-.81L7.51,20.15a3,3,0,1,1,4.1-4.38L29.3,32.32a3,3,0,0,1-2.05,5.19Z"/></g></g></svg>