<svg xmlns="http://www.w3.org/2000/svg" viewBox="0 0 77.29 77.28"><defs><style>.cls-1{fill:#fff;}</style></defs><g id="圖層_2" data-name="圖層 2"><g id="Layer_1" data-name="Layer 1"><path class="cls-1" d="M38.64,77.28A38.64,38.64,0,1,1,77.29,38.64,38.69,38.69,0,0,1,38.64,77.28ZM38.64,6A32.64,32.64,0,1,0,71.29,38.64,32.67,32.67,0,0,0,38.64,6Z"/><path class="cls-1" d="M38.64,41.62a3,3,0,0,1-3-3V15a3,3,0,0,1,6,0V38.62A3,3,0,0,1,38.64,41.62Z"/><path class="cls-1" d="M38.64,67.39a3,3,0,0,1-3-3V61a3,3,0,0,1,6,0v3.44A3,3,0,0,1,38.64,67.39Z"/><path class="cls-1" d="M64.4,41.63H61a3,3,0,0,1,0-6H64.4a3,3,0,0,1,0,6Z"/><path class="cls-1" d="M48.58,41.63H38.64a3,3,0,0,1,0-6h9.94a3,3,0,0,1,0,6Z"/><path class="cls-1" d="M16.32,41.63H13a3,3,0,0,1,0-6h3.33a3,3,0,0,1,0,6Z"/></g></g></svg>