<svg xmlns="http://www.w3.org/2000/svg" viewBox="0 0 66.35 78.07"><defs><style>.cls-1{fill:#fff;}</style></defs><g id="圖層_2" data-name="圖層 2"><g id="Layer_1" data-name="Layer 1"><path class="cls-1" d="M15.07,78.07a3,3,0,0,1-3-3V51.9a3,3,0,0,1,6,0V75.07A3,3,0,0,1,15.07,78.07Z"/><path class="cls-1" d="M3,78.07a3,3,0,0,1-3-3V63.19a3,3,0,0,1,6,0V75.07A3,3,0,0,1,3,78.07Z"/><path class="cls-1" d="M63.35,78.07a3,3,0,0,1-3-3V23.87a3,3,0,1,1,6,0v51.2A3,3,0,0,1,63.35,78.07Z"/><path class="cls-1" d="M27.14,78.07a3,3,0,0,1-3-3V41.83a3,3,0,0,1,6,0V75.07A3,3,0,0,1,27.14,78.07Z"/><path class="cls-1" d="M39.21,78.07a3,3,0,0,1-3-3V50.82a3,3,0,0,1,6,0V75.07A3,3,0,0,1,39.21,78.07Z"/><path class="cls-1" d="M51.28,78.07a3,3,0,0,1-3-3V37.64a3,3,0,0,1,6,0V75.07A3,3,0,0,1,51.28,78.07Z"/><path class="cls-1" d="M3,41.65A3,3,0,0,1,.91,36.53L24.35,13.1A3,3,0,0,1,28.48,13l9.23,8.38L61.16.75a3,3,0,1,1,4,4.5L39.65,27.66a3,3,0,0,1-4,0l-9.09-8.26L5.15,40.78A3,3,0,0,1,3,41.65Z"/></g></g></svg>