<svg xmlns="http://www.w3.org/2000/svg" viewBox="0 0 70.54 77.35"><defs><style>.cls-1{fill:#fff;}</style></defs><g id="圖層_2" data-name="圖層 2"><g id="Layer_1" data-name="Layer 1"><rect class="cls-1" x="64.52" y="17.97" width="6" height="53.54" rx="3"/><path class="cls-1" d="M15.06,41.22a3,3,0,0,1-1.76-.57,3,3,0,0,1-.66-4.2l5.12-7a3,3,0,0,1,3.66-1l3.92,1.78,6.39-7.77a3,3,0,0,1,3-1l10.78,2.39a3,3,0,0,1-1.3,5.86l-9-2-6.68,8.12a3,3,0,0,1-3.55.82L21.16,35l-3.67,5A3,3,0,0,1,15.06,41.22Z"/><path class="cls-1" d="M57,77.35H3a3,3,0,0,1-3-3V12.54a3,3,0,0,1,3-3H7.43a3,3,0,0,1,0,6H6V71.35H54V15.54H52.88a3,3,0,0,1,0-6H57a3,3,0,0,1,3,3V74.35A3,3,0,0,1,57,77.35Z"/><path class="cls-1" d="M42.62,12.78H35.85a3,3,0,0,1-3-2.57C32.26,6,31.86,6,30.68,6s-1.63,0-2.25,4.22a3,3,0,0,1-3,2.56H17.65a3,3,0,1,1,0-6H23C23.69,3.62,25.43,0,30.68,0s7,3.55,7.69,6.78h4.25a3,3,0,1,1,0,6Z"/><path class="cls-1" d="M44.5,54.49H24.66a3,3,0,0,1,0-6H44.5a3,3,0,0,1,0,6Z"/><path class="cls-1" d="M44.5,63.58H34.35a3,3,0,0,1,0-6H44.5a3,3,0,0,1,0,6Z"/></g></g></svg>