<svg xmlns="http://www.w3.org/2000/svg" viewBox="0 0 20 10"><defs><style>.cls-1{fill:#091b2f;}</style></defs><g id="圖層_2" data-name="圖層 2"><g id="Layer_1" data-name="Layer 1"><path class="cls-1" d="M10,2.5h0Z"/><path class="cls-1" d="M15.86,0H13.33A4.14,4.14,0,0,1,15,2.5h.88A1.62,1.62,0,0,1,17.5,4.14V5.81A1.67,1.67,0,0,1,15.86,7.5H10a1.72,1.72,0,0,1-1.7-1.69V4.17H5.83V5.81A4.16,4.16,0,0,0,6.19,7.5,4.22,4.22,0,0,0,10,10h5.83A4.17,4.17,0,0,0,20,5.81V4.14A4.12,4.12,0,0,0,15.86,0Z"/><path class="cls-1" d="M13.83,2.5A4.13,4.13,0,0,0,10,0H4.19A4.17,4.17,0,0,0,0,4.14V5.81A4.21,4.21,0,0,0,4.19,10H6.67A4.31,4.31,0,0,1,5,7.5h-.8A1.72,1.72,0,0,1,2.5,5.81V4.14A1.67,1.67,0,0,1,4.19,2.5H10a1.63,1.63,0,0,1,1.64,1.64V5.83h2.5V4.14A4.08,4.08,0,0,0,13.83,2.5Z"/></g></g></svg>