<svg xmlns="http://www.w3.org/2000/svg" viewBox="0 0 208 86"><defs><style>.cls-1{fill:#031b31;}.cls-2{fill:#127e8e;}.cls-3{fill:#f65992;}.cls-4{font-size:11.29px;font-family:MyriadPro-Regular, Myriad Pro;letter-spacing:0.2em;}.cls-5{letter-spacing:0.21em;}.cls-6{letter-spacing:0.2em;}.cls-7{letter-spacing:0.11em;}.cls-8{letter-spacing:0.2em;}</style></defs><g id="圖層_2" data-name="圖層 2"><g id="Layer_1" data-name="Layer 1"><path class="cls-1" d="M75.57,41.27H66.51l-2.27,8.47H55.18l3.89-14.53a6.36,6.36,0,0,1,2.71-3.36,8.51,8.51,0,0,1,4.62-1.43H87.53L82.37,49.74H73.31Zm-3.79-8.46A3.54,3.54,0,0,0,70.6,33a5.19,5.19,0,0,0-1.11.54,5,5,0,0,0-.87.77,2.23,2.23,0,0,0-.49.88l-1,3.67h9.06l1.61-6.07Z"/><path class="cls-1" d="M91.48,49.74a5.12,5.12,0,0,1-3.81-1.46,3.31,3.31,0,0,1-.94-3.39L88,40.05a6.06,6.06,0,0,1,2.7-3.34,8.42,8.42,0,0,1,4.64-1.5h18.1l-.63,2.45H100.73a3.84,3.84,0,0,0-1.19.19,4.09,4.09,0,0,0-1.12.52,3.77,3.77,0,0,0-.87.76,2.1,2.1,0,0,0-.46.92l-1.31,4.84a1.67,1.67,0,0,0,.47,1.69,2.36,2.36,0,0,0,1.89.76h12.1l-.65,2.4Z"/><path class="cls-1" d="M118.37,49.74a5.16,5.16,0,0,1-3.81-1.46,3.31,3.31,0,0,1-.94-3.39l3.88-14.47h9.06l-1.29,4.79h9.06l-.65,2.45h-9.05l-1.95,7.23a1.69,1.69,0,0,0,.46,1.69,2.37,2.37,0,0,0,1.9.76h9.06l-.65,2.4Z"/><path class="cls-1" d="M139.67,35.21h9.06l-3.89,14.53h-9.06Zm10.68-6a4.67,4.67,0,0,1-2.07,2.53,6.29,6.29,0,0,1-3.41,1.09A3.85,3.85,0,0,1,142,31.72a2.4,2.4,0,0,1-.71-2.53,4.46,4.46,0,0,1,2-2.51,6.13,6.13,0,0,1,3.47-1.11,3.68,3.68,0,0,1,2.8,1.11A2.44,2.44,0,0,1,150.35,29.19Z"/><path class="cls-1" d="M176.32,44.89a6,6,0,0,1-2.71,3.39A8.22,8.22,0,0,1,169,49.74H147.87l3.88-14.53h9.07l-3.25,12.13h6.06a3.82,3.82,0,0,0,2.29-.76,3,3,0,0,0,1.34-1.69l2.61-9.68h9Z"/><path class="cls-1" d="M188.46,44.89a2.22,2.22,0,0,0,.51,1.72,2.39,2.39,0,0,0,1.85.73h12.09l-.64,2.4H184.15a5.16,5.16,0,0,1-3.81-1.46,3.31,3.31,0,0,1-.94-3.39l1.31-4.84a6,6,0,0,1,2.7-3.34,8.42,8.42,0,0,1,4.64-1.5h15.06a5,5,0,0,1,3.81,1.5,3.32,3.32,0,0,1,1,3.34l-1.32,4.84Zm10.36-4.84a1.79,1.79,0,0,0,0-.92,1.9,1.9,0,0,0-.45-.76,2.13,2.13,0,0,0-.81-.52,2.76,2.76,0,0,0-1.07-.19h-3.05a3.9,3.9,0,0,0-1.2.19,4,4,0,0,0-1.11.52,3.77,3.77,0,0,0-.87.76,2.13,2.13,0,0,0-.47.92l-.67,2.45h9.06Z"/><path class="cls-2" d="M17.84,62.62A14.7,14.7,0,0,0,23.25,57a33,33,0,0,1-3.38,9.9C12.63,74.78,11.34,86,11.34,86S7.33,67.83,17.84,62.62Z"/><path class="cls-2" d="M30.84,38.82S24.69,41,24,44.77c-.75,4.18,2.31,6,9.54,7.55,5.77,1.22,8.45,1,10.3,2.79A3.22,3.22,0,0,1,44,59.83c1.88-1.86,3.42-4.58,1.88-7.19-.37-.63-1.77-2.92-7.77-5.94C33.27,44.29,30.26,43.5,30.84,38.82Z"/><path class="cls-3" d="M41.34,55.87a5.52,5.52,0,0,0-.16-1.34,5,5,0,0,1,2.12,1.15,2.65,2.65,0,0,1,.24,3.8l-.29.26C33,68.23,29.38,76.24,29.38,76.24s-.4-10,4.48-15.15C37.31,57.45,41.35,58.46,41.34,55.87Z"/><path class="cls-3" d="M24.82,49.58a7.29,7.29,0,0,0,.65.56c1.41,1,3.6,1.89,7,2.66C29.93,57.42,24,63.49,20.75,66.72,23.78,61,24.61,53.92,24.82,49.58Z"/><path class="cls-3" d="M38.29,22.34c1.85,2.37,4.78,3.15,6.53,1.76s1.66-4.44-.2-6.8c-1.54-2-3.81-2.83-5.54-2.28a2.94,2.94,0,0,0-1,.52C36.34,16.94,36.43,20,38.29,22.34Z"/><path class="cls-2" d="M38.85,27.1C42.42,29.42,43,31.49,42.69,34S39.61,39,39.61,39c.42-1.45-.26-3.77-3-6a53.65,53.65,0,0,0-10-6.13c-5.94-3-10.29-4.69-13.36-6.65C8.85,17.3,2.81,13.1,0,0,5.41,17.29,23.77,17.29,38.85,27.1Z"/><path class="cls-3" d="M19.57,24.17c2,1,4.22,2.06,6.78,3.35,5.94,3,8.5,4.75,10.34,6.49a5.8,5.8,0,0,1,.7,8c-.42.58-.93,1.2-1.48,1.93,0,0,.32-5-8.43-10.67-8.4-5.4-15.38-8.35-18.63-15a32.81,32.81,0,0,0,4.23,2.65C14.88,21.89,17,22.93,19.57,24.17Z"/><text class="cls-4" transform="translate(75.92 64.2)">SPO<tspan class="cls-5" x="26.13" y="0">R</tspan><tspan class="cls-6" x="34.56" y="0">T &amp; HEA</tspan><tspan class="cls-7" x="87.43" y="0">L</tspan><tspan class="cls-8" x="94.03" y="0">TH</tspan></text></g></g></svg>