<?xml version="1.0" encoding="utf-8"?>
<!-- Generator: Adobe Illustrator 24.2.1, SVG Export Plug-In . SVG Version: 6.00 Build 0)  -->
<svg version="1.1" id="圖層_1" xmlns="http://www.w3.org/2000/svg" xmlns:xlink="http://www.w3.org/1999/xlink" x="0px" y="0px"
	 viewBox="0 0 208 86" style="enable-background:new 0 0 208 86;" xml:space="preserve">
<style type="text/css">
	.st0{fill:#455A64;}
	.st1{fill:#4CAF50;}
	.st2{fill:#F44336;}
	.st3{fill:#FFC107;}
	.st4{fill:#091B2F;}
	.st5{font-family:'Broadway';}
	.st6{font-size:40px;}
	.st7{font-size:14px;}
</style>
<path class="st0" d="M48,20.6c-2.2-2.1-5.5-2.1-7.7,0l-3.1,3.1c-0.2,0.2-0.3,0.5-0.3,0.7v6.2c0,0.6,0.5,1.1,1.1,1.1h6.2
	c0.3,0,0.6-0.1,0.7-0.3l3.1-3.1C50.1,26.2,50.1,22.7,48,20.6C48,20.6,48,20.6,48,20.6C48,20.6,48,20.6,48,20.6z"/>
<path class="st1" d="M37.9,19h-8.5c-0.6,0-1.1,0.5-1.1,1.1v8.5c0,0.5,0.3,0.9,0.8,1l8.5,2.1c0.1,0,0.2,0,0.3,0
	c0.6,0,1.1-0.5,1.1-1.1V20.1C39,19.5,38.5,19,37.9,19z"/>
<path class="st2" d="M32.3,29.9L21.7,19.3c-0.4-0.4-1.1-0.4-1.5,0l-6.4,6.4c-0.4,0.4-0.4,1.1,0,1.5l4.2,4.2c0.2,0.2,0.5,0.3,0.7,0.3
	h12.7c0.6,0,1.1-0.5,1.1-1.1C32.6,30.4,32.5,30.1,32.3,29.9z"/>
<g>
	<circle class="st0" cx="42.2" cy="64.5" r="5.3"/>
	<circle class="st0" cx="21" cy="64.5" r="5.3"/>
</g>
<path class="st3" d="M51.4,29.9c-0.2-0.2-0.5-0.4-0.8-0.4H12.5c-0.6,0-1.1,0.5-1.1,1.1c0,0.1,0,0.1,0,0.2l3.2,16.9
	c0.1,0.5,0.5,0.9,1,0.9h29.1c2.7,0,4.9-2,5.3-4.6l1.7-13.2C51.7,30.5,51.6,30.2,51.4,29.9z"/>
<path class="st0" d="M46.4,57.1H22c-3.5,0-6.6-2.5-7.3-6L9.5,25.4H4.1c-0.6,0-1.1-0.5-1.1-1.1s0.5-1.1,1.1-1.1h6.4
	c0.5,0,0.9,0.4,1,0.8l5.3,26.7c0.5,2.5,2.7,4.2,5.2,4.3h24.4c0.6,0,1.1,0.5,1.1,1.1C47.5,56.6,47,57.1,46.4,57.1z"/>
<text transform="matrix(1 0 0 1 61.7007 51.3528)"><tspan x="0" y="0" class="st4 st5 st6">SUPER</tspan><tspan x="0" y="16.8" class="st4 st5 st7">SUPERMARKET</tspan></text>
</svg>
